<?xml version="1.0" encoding="UTF-8" standalone="no"?>
<!DOCTYPE svg PUBLIC "-//W3C//DTD SVG 1.1//EN" "http://www.w3.org/Graphics/SVG/1.1/DTD/svg11.dtd">
<svg width="100%" height="100%" viewBox="0 0 1000 1000" version="1.1" xmlns="http://www.w3.org/2000/svg" xmlns:xlink="http://www.w3.org/1999/xlink" xml:space="preserve" xmlns:serif="http://www.serif.com/" style="fill-rule:evenodd;clip-rule:evenodd;stroke-linejoin:round;stroke-miterlimit:2;">
    <g transform="matrix(3.2625,0,0,3.2625,-1129.38,-1112.39)">
        <path d="M420.737,428.077L421.455,597.185C413.629,599.517 409.82,602.901 412.331,607.939L459.889,607.813C459.889,607.813 464.78,599.646 450.418,597.141C450.134,593.331 449.72,556.69 449.72,556.69C449.72,556.69 521.178,585.244 581.769,553.165C583.502,551.661 660.695,502.775 611.505,425.664C609.058,422.164 580.528,374.676 498.504,381.05C490.625,382.73 425.162,389.49 374.08,444.606C377.194,449.222 389.935,470.268 389.935,470.268C389.935,470.268 397.207,473.093 394.52,457.075C395.586,452.893 397.683,448.436 420.737,428.077ZM449.728,412.833L450.435,540.883C450.435,540.883 543.58,584.888 588.106,506.289C589.403,499.757 607.362,431.83 548.377,402.158C541.104,399.141 496.048,383.362 449.728,412.833Z" style="fill:white;"/>
    </g>
</svg>
